<svg xmlns="http://www.w3.org/2000/svg" width="512" height="512" viewBox="0 0 135.467 135.467"><g transform="matrix(1.47246 0 0 1.47246 -121.252 -20.498)"><circle cx="128.346" cy="59.921" r="46" fill="#e9304a"/><path fill="#fff" d="M157.549 34.415c.818 17.203-2.445 30.771-8.975 37.544l-17.882-16.564-2.94-17.115 1.975-.12c18.25.394 23.48-2.372 25.793-4.706zM107.542 81.62c4.009 5.079 7.693 9.22 4.142 10.691-4.374 1.813-8.753-4.577-10.89-11.258zM142.387 75.908c2.773 2.205 8.419 8.319 5.446 11.893-3.542 3.608-11.76-5.211-11.76-5.211z"/><circle cx="156.414" cy="33.902" r="1.533" fill="#f28392"/><circle cx="145.843" cy="49.546" r="2.15" fill="#e9304a"/><circle cx="144.372" cy="44.219" r="1.555" fill="#422e27"/><path fill="#f28392" d="M153.052 69.814c-4.192 5.657-11.49 12.023-13.265 14.33l3.194 1.242c-1.065.777-15.794 5.524-18.323 5.724l1.774 2.573c-9.738-1.575-18.855-5.856-18.855-5.856l-.622 4.614-6.344-9.362s-1.686 2.751-1.908 3.417c-1.131-1.93-2.795-12.822-2.795-12.822s-4.148 3.039-4.281 3.505c-.644-1.065 1.575-11.358 1.575-11.358s-2.041-.045-4.082.532c0-1.464 4.57-10.027 4.57-10.027s-4.193-1.597-5.879-1.686c1.775-1.663 11.713-6.167 12.268-6.255l.71-.932c-.666-.355-3.883-1.886-6.966-2.13 3.793-3.083 14.33-7.742 16.127-8.096l-3.35-3.306c9.916.022 16.106 1.553 16.106 1.553l-.888-2.973c2.063.777 9.583 5.59 9.583 5.59l-2.085.478 2.152.488-.466.233.754.355c.067.377-.355 1.109-.355 1.109h1.02c0 .454-.62 1.863-.62 1.863s1.786.555 2.063.865c-.122.477-1.032 1.42-1.032 1.42s.688.056.899.366c.004.318-.281.57-.422.854 0 0 2.152-.21 2.396 0 0 .288-1.276 1.043-1.276 1.043l.655.865h1.641l-1.42 1.553 1.365.088c.055.211-1.231 1.376-1.231 1.376l2.75.133-4.658 2.795 6.167.688-3.782 1.32s3.97-.167 4.037.1l-.432.909 2.617.222-1.508 1.109 2.961.177-1.098 1.065s1.575-.355 1.697-.022c.167.3-1.386 1.342-1.386 1.342l2.761.854.156 1.087.898.144c-.432.777-.51 1.786-.177 2.097.3.21 1.22-.755 1.22-.755l.022 1.287.854.133-.599 4.392c.854.267 5.113-.31 5.113-.31z"/></g></svg>