<?xml version="1.0" encoding="UTF-8" standalone="no"?>
<!-- Created with Inkscape (http://www.inkscape.org/) -->

<svg
   xmlns:dc="http://purl.org/dc/elements/1.1/"
   xmlns:cc="http://creativecommons.org/ns#"
   xmlns:rdf="http://www.w3.org/1999/02/22-rdf-syntax-ns#"
   xmlns:svg="http://www.w3.org/2000/svg"
   xmlns="http://www.w3.org/2000/svg"
   xmlns:sodipodi="http://sodipodi.sourceforge.net/DTD/sodipodi-0.dtd"
   xmlns:inkscape="http://www.inkscape.org/namespaces/inkscape"
   width="210mm"
   height="297mm"
   viewBox="0 0 210 297"
   version="1.1"
   id="svg8"
   inkscape:version="0.92.3 (unknown)"
   sodipodi:docname="freehand.svg">
  <defs
     id="defs2" />
  <sodipodi:namedview
     id="base"
     pagecolor="#ffffff"
     bordercolor="#666666"
     borderopacity="1.0"
     inkscape:pageopacity="0.0"
     inkscape:pageshadow="2"
     inkscape:zoom="0.35"
     inkscape:cx="-151.42857"
     inkscape:cy="554.28571"
     inkscape:document-units="mm"
     inkscape:current-layer="layer1"
     showgrid="false"
     inkscape:window-width="1920"
     inkscape:window-height="954"
     inkscape:window-x="0"
     inkscape:window-y="27"
     inkscape:window-maximized="1" />
  <metadata
     id="metadata5">
    <rdf:RDF>
      <cc:Work
         rdf:about="">
        <dc:format>image/svg+xml</dc:format>
        <dc:type
           rdf:resource="http://purl.org/dc/dcmitype/StillImage" />
        <dc:title></dc:title>
      </cc:Work>
    </rdf:RDF>
  </metadata>
  <g
     inkscape:label="Layer 1"
     inkscape:groupmode="layer"
     id="layer1">
    <g
       id="g831">
      <path
         inkscape:connector-curvature="0"
         id="path817"
         d="m 81.642856,108.76785 c 2.611946,18.55823 3.568825,37.34953 6.047619,55.94048 0.235489,1.76617 0.578657,3.51871 0.755951,5.29167 0.100296,1.00293 0,2.01587 0,3.02381 0,2.01587 0,4.03174 0,6.04762"
         style="fill:none;stroke:#000000;stroke-width:0.26458332px;stroke-linecap:butt;stroke-linejoin:miter;stroke-opacity:1" />
      <path
         inkscape:connector-curvature="0"
         id="path819"
         d="m 110.36905,99.696427 c 1.76388,9.323413 3.61069,18.631523 5.29166,27.970243 0.58715,3.26191 0.91902,6.5665 1.51191,9.82738 0.61187,3.3653 1.94316,7.76764 2.26785,11.33928 0.11407,1.25475 -0.27331,2.54985 0,3.77976 0.24447,1.10007 1.068,1.98802 1.51191,3.02381 0.31389,0.73242 0.50397,1.51191 0.75595,2.26786 0.25199,0.75595 0.59968,1.48649 0.75595,2.26786 1.06245,5.3122 -2.3125,-4.66967 0.75596,4.53571 0.52582,1.57747 1.74203,2.2023 2.26785,3.77976 0.14217,0.42651 0,1.77112 0,2.26786"
         style="fill:none;stroke:#000000;stroke-width:0.26458332px;stroke-linecap:butt;stroke-linejoin:miter;stroke-opacity:1" />
      <path
         inkscape:connector-curvature="0"
         id="path821"
         d="m 49.892857,176.04762 c 8.000529,11.42933 14.451827,21.17275 22.67857,31.75 1.208272,1.55349 2.550326,2.99891 3.779763,4.53571 0.787067,0.98383 1.461275,2.05591 2.267857,3.02381 1.115179,1.33822 2.734837,2.38653 3.779761,3.77976 0.338071,0.45076 0.41788,1.06114 0.755952,1.51191 1.368943,1.82525 1.920078,1.53606 3.779763,3.02381 0.556541,0.44523 1.007936,1.00793 1.511903,1.5119 0.503971,0.50397 1.066673,0.95537 1.511906,1.51191 0.567561,0.70945 0.869469,1.62542 1.511906,2.26785 0.02016,0.0202 4.456099,2.9641 4.535712,3.02381 1.259922,1.00794 2.519842,2.01588 3.779764,3.02381 0.503966,0.25199 1.043086,0.44341 1.511906,0.75595 0.29651,0.19768 0.41788,0.64327 0.75595,0.75596 0.47811,0.15937 1.00794,0 1.5119,0 0.25199,0 0.53058,0.11269 0.75596,0 0.31873,-0.15937 0.41788,-0.64327 0.75595,-0.75596 1.79644,-0.59881 1.37298,0.89488 3.02381,-0.75595 0.17818,-0.17818 -0.17818,-0.57777 0,-0.75595 0.39842,-0.39842 1.02269,-0.4764 1.5119,-0.75595 1.27572,-0.72898 2.55723,-1.45283 3.77977,-2.26786 6.56952,-4.37968 -0.79565,-0.40233 6.80357,-3.77976 1.02978,-0.45768 2.04538,-0.9528 3.02381,-1.51191 2.32258,-1.32719 2.55036,-2.11004 5.29166,-3.0238 0.47811,-0.15937 1.02299,0.12222 1.51191,0 2.19244,-0.54812 0.88466,-0.58978 2.26785,-1.51191 0.46883,-0.31255 0.98876,-0.54669 1.51191,-0.75595 0.73985,-0.29594 1.52801,-0.46001 2.26786,-0.75596 1.0463,-0.41852 1.95473,-1.15554 3.02381,-1.5119 2.25034,-0.75011 -1.55107,1.79 2.26785,-0.75595 0.68816,-0.45877 1.59783,-1.93285 2.26786,-2.26786 0.22538,-0.11269 0.53057,0.11269 0.75595,0 0.63748,-0.31874 0.87443,-1.19317 1.51191,-1.5119 0.22538,-0.1127 0.57777,0.17818 0.75595,0 0.39842,-0.39843 0.4434,-1.04309 0.75595,-1.51191 0.45877,-0.68816 1.93285,-1.59783 2.26786,-2.26786 0.11269,-0.22538 -0.0797,-0.5169 0,-0.75595 1.82523,-5.47568 -0.21794,1.19184 1.5119,-2.26785 0.35636,-0.71273 0.44206,-1.53545 0.75596,-2.26786 0.44391,-1.03579 1.06799,-1.98802 1.5119,-3.02381 0.93803,-2.18874 1.3833,-4.59219 2.26786,-6.80357 0.20926,-0.52316 0.57777,-0.97737 0.75595,-1.51191 0.0797,-0.23905 -0.0797,-0.5169 0,-0.75595 1.82523,-5.47568 -0.21794,1.19184 1.51191,-2.26786 0.11269,-0.22538 -0.11269,-0.53057 0,-0.75595 0.15937,-0.31874 0.59658,-0.43722 0.75595,-0.75595 0.11269,-0.22538 0,-0.50397 0,-0.75596 0,-0.25198 0,-0.50396 0,-0.75595 0,-1.25992 0,-2.51984 0,-3.77976 0,-0.25198 0,-0.50397 0,-0.75595 0,-0.25199 -0.11269,-0.53057 0,-0.75595 0.15937,-0.31874 0.59658,-0.43722 0.75595,-0.75596 0.11269,-0.22538 0,-0.50396 0,-0.75595 0,-1.70788 0.11269,0.33807 -0.75595,-2.26786 -0.0797,-0.23905 0.0797,-0.5169 0,-0.75595 -0.17818,-0.53454 -0.6193,-0.96527 -0.75595,-1.5119 -0.12224,-0.48892 0.0988,-1.01773 0,-1.51191 -0.78653,-3.93261 -0.50397,-0.75595 -1.51191,-3.77976 -0.23905,-0.71716 0.23905,-1.5507 0,-2.26786 -0.11269,-0.33807 -0.59658,-0.43721 -0.75595,-0.75595 -0.10073,-0.20146 0,-4.19373 0,-4.53571"
         style="fill:none;stroke:#000000;stroke-width:0.26458332px;stroke-linecap:butt;stroke-linejoin:miter;stroke-opacity:1" />
      <path
         inkscape:connector-curvature="0"
         id="path825"
         d="m 41.577381,85.333334 c 1.007936,-0.755955 2.13291,-1.376961 3.023809,-2.267858 0.890897,-0.8909 1.319671,-2.194147 2.267858,-3.023809 1.105765,-0.967547 2.557224,-1.452832 3.779761,-2.267858 5.836877,-3.891253 0.235966,-1.228277 9.071429,-6.04762 0.699546,-0.381569 1.555137,-0.399593 2.267855,-0.755952 0.812943,-0.406471 2.648286,-1.984989 3.779764,-2.267857 5.014357,0 -1.069078,0.356359 2.267857,-0.755952 0.478105,-0.159369 1.033799,0.159369 1.511903,0 0.338074,-0.112691 0.437216,-0.596583 0.755955,-0.755952 0.712718,-0.356359 1.528005,-0.460012 2.267855,-0.755954 1.046308,-0.418523 1.93055,-1.238589 3.023811,-1.511903 0.594643,-0.148662 3.74958,0 4.535713,0 3.275795,0 6.551588,0 9.827381,0 3.023809,0 6.047618,0 9.071428,0 1.76389,0 3.53297,-0.135284 5.29167,0 1.52824,0.117557 3.00925,0.617183 4.53571,0.755951 1.25475,0.114068 2.52609,-0.125367 3.77976,0 2.37296,-0.04328 4.49461,1.255353 6.80357,1.511906 1.25222,0.139134 2.52755,-0.139136 3.77977,0 1.00793,0.251984 2.01587,0.503968 3.02381,0.755952 0.25198,0.251984 0.41788,0.64326 0.75595,0.755952 0.47811,0.159369 1.0338,-0.15937 1.5119,0 0.33808,0.112691 0.41788,0.643262 0.75596,0.755954 0.4781,0.159366 1.03379,-0.159369 1.5119,0 0.33807,0.112688 0.43722,0.596582 0.75595,0.755951 0.22538,0.112692 0.57777,-0.178181 0.75595,0 0.17819,0.178179 -0.19676,0.598538 0,0.755952 1.14734,0.917869 2.55723,1.452832 3.77977,2.267857 1.04831,0.698879 2.01587,1.511906 3.02381,2.267858 5.53286,4.149648 0.38819,0.453199 6.80357,4.535715 3.066,1.951093 5.93231,4.216466 9.07143,6.047618 2.92019,1.703449 6.1035,2.916849 9.07142,4.535715 6.24421,3.405928 1.44548,1.011828 7.55953,5.291667 6.39049,3.834291 1.29205,0.598911 6.80357,4.535713 0.0738,0.0527 4.52503,3.01312 4.53571,3.02381 0.39843,0.39842 0.41788,1.06114 0.75596,1.5119 0.42763,0.57018 1.16577,0.88888 1.5119,1.51191 0.93198,1.67755 1.53718,3.51716 2.26786,5.29167 1.63068,3.96022 3.81034,9.45942 5.29167,13.60714 0.53601,1.50084 0.92002,3.05601 1.5119,4.53571 0.98348,2.4587 1.78118,2.85829 2.26786,5.29167 0.0988,0.49418 -0.12223,1.02298 0,1.5119 0.13665,0.54663 0.64545,0.9594 0.75595,1.51191 0.14825,0.74127 -0.14826,1.52658 0,2.26785 0.1105,0.55252 0.66332,0.95612 0.75595,1.51191 0.1657,0.99422 -0.11131,2.02204 0,3.02381 1.57002,14.13018 -0.0583,-3.37365 1.5119,6.04762 0.12429,0.74566 -0.14825,1.52658 0,2.26786 0.11051,0.55251 0.6193,0.96527 0.75596,1.5119 0.12223,0.48892 0,1.00794 0,1.5119 0,0.50397 0,1.00794 0,1.51191 0,1.76389 0,3.52778 0,5.29167 0,2.77182 0,5.54365 0,8.31547 0,0.25199 0,0.50397 0,0.75595 0,0.25199 0.17818,0.57778 0,0.75596 -0.17818,0.17818 -0.57777,-0.17818 -0.75596,0 -0.17817,0.17818 0.0383,0.50689 0,0.75595 -0.46613,3.02987 -0.7684,6.09744 -1.5119,9.07143 -0.77305,3.09221 -2.05739,6.0341 -3.02381,9.07143 -2.24925,4.52313 -2.30309,9.63774 -3.77976,14.36309 -0.57241,1.8317 -1.57896,3.50053 -2.26786,5.29167 -0.5721,1.48746 -0.92002,3.05601 -1.5119,4.53571 -0.41852,1.04631 -1.20232,1.94026 -1.51191,3.02381 -0.20767,0.72687 0.14826,1.52659 0,2.26786 -0.1105,0.55251 -0.54669,0.98875 -0.75595,1.51191 -0.29594,0.73984 -0.52161,1.50624 -0.75595,2.26785 -1.24555,4.04804 -2.33264,8.11565 -3.77976,12.09524 -0.46374,1.27527 -1.03544,2.50919 -1.51191,3.77976 -0.27979,0.74611 -0.46001,1.52801 -0.75595,2.26786 -0.20926,0.52315 -0.57777,0.97736 -0.75595,1.5119 -0.0797,0.23906 0.11269,0.53057 0,0.75595 -0.40632,0.81263 -1.1056,1.45524 -1.51191,2.26786 -0.11269,0.22538 0.11269,0.53057 0,0.75595 -0.15937,0.31874 -0.50397,0.50397 -0.75595,0.75596 -0.25198,0.25198 -0.45944,0.55828 -0.75595,0.75595 -0.46882,0.31255 -1.04308,0.4434 -1.51191,0.75595 -0.29651,0.19767 -0.50397,0.50397 -0.75595,0.75595 -0.75595,0.75596 -1.44657,1.58345 -2.26786,2.26786 -2.65738,2.21449 -1.92955,1.14715 -5.29166,2.26786 -1.28734,0.42911 -2.50449,1.04817 -3.77976,1.5119 -4.13289,1.50287 -4.28049,1.53422 -8.31548,2.26786 -1.50804,0.27419 -3.00925,0.61718 -4.53572,0.75595 -1.25474,0.11407 -2.51984,0 -3.77976,0 -1.25992,0 -2.51984,0 -3.77976,0 -1.76389,0 -3.52778,0 -5.29167,0 -0.75595,0 -1.5195,0.10691 -2.26785,0 -1.02852,-0.14693 -1.9953,-0.60902 -3.02381,-0.75595 -0.74836,-0.10691 -1.51191,0 -2.26786,0 -2.01587,0 -4.03174,0 -6.04762,0 -1.00793,0 -2.01587,0 -3.02381,0 -0.75595,0 -1.5195,0.10691 -2.26785,0 -1.02852,-0.14693 -1.99288,-0.62708 -3.02381,-0.75595 -1.00016,-0.12502 -2.02366,0.12502 -3.02381,0 -2.06187,-0.25774 -3.98576,-1.25417 -6.04762,-1.51191 -1.00016,-0.12502 -2.02601,0.14255 -3.02381,0 -1.577674,-0.22538 -2.972978,-1.19936 -4.535715,-1.5119 -0.494184,-0.0988 -1.022985,0.12223 -1.511906,0 -0.546629,-0.13666 -0.965274,-0.6193 -1.511906,-0.75595 -3.459697,-0.86493 0.786013,1.52693 -3.779761,-0.75596 -0.812625,-0.40631 -1.417164,-1.19289 -2.267857,-1.5119 -1.203063,-0.45115 -2.533253,-0.44433 -3.779761,-0.75595 -0.773052,-0.19327 -1.511906,-0.50397 -2.267858,-0.75596 -0.755951,-0.25198 -1.535443,-0.44206 -2.267857,-0.75595 -1.035791,-0.44391 -1.988018,-1.06799 -3.023809,-1.5119 -0.732414,-0.3139 -1.521748,-0.47616 -2.267858,-0.75596 -1.270576,-0.47646 -2.532504,-0.97736 -3.77976,-1.5119 -2.293745,-0.98303 -1.092727,-0.73241 -3.779764,-2.26786 -0.978429,-0.5591 -2.086165,-0.88681 -3.023809,-1.5119 -0.593018,-0.39535 -0.955365,-1.06668 -1.511906,-1.51191 -0.709451,-0.56756 -1.541023,-0.96678 -2.267855,-1.5119 -0.285088,-0.21382 -0.50397,-0.50397 -0.755954,-0.75595 -4.130773,-4.13078 2.333194,2.42444 -5.291666,-6.04762 -0.824667,-2.63098 -3.64893,-2.89298 -5.291667,-4.53572 -0.642435,-0.64243 -0.944343,-1.5584 -1.511903,-2.26785 -0.667848,-0.83481 -1.674839,-1.37834 -2.267858,-2.26786 -0.312547,-0.46882 -0.428453,-1.05341 -0.755951,-1.5119 -0.937821,-1.31295 -2.373998,-2.30292 -3.023812,-3.77977 -4.107278,-9.33472 -6.919452,-21.30095 -9.827379,-30.99405 -0.686914,-2.28971 -1.463836,-4.5523 -2.267858,-6.80357 -0.4564,-1.27792 -1.18279,-2.4633 -1.511905,-3.77976 -0.183346,-0.73338 0.148254,-1.52658 0,-2.26785 -0.369277,-1.84639 -1.249815,-1.49675 -2.267857,-3.02382 -0.187738,-0.2816 0.162094,-2.53752 0,-3.02381 -0.178179,-0.53453 -0.619294,-0.96527 -0.755952,-1.5119 -0.12223,-0.48892 0,-1.00794 0,-1.5119 0,-0.50397 0,-1.00794 0,-1.51191 0,-1.00794 0,-2.01587 0,-3.02381 0,-0.75595 -0.124278,-1.52219 0,-2.26785 1.10598,-6.63589 0.278078,1.15554 1.511905,-3.77977 0.12223,-0.48892 -0.12223,-1.02298 0,-1.5119 0.136657,-0.54663 0.637892,-0.96096 0.755952,-1.51191 1.397902,-6.52354 2.512004,-13.10468 3.779761,-19.65476 0.244155,-1.26146 0.628105,-2.50126 0.755954,-3.77976 0,-8.22706 -0.398423,-0.27575 0.755952,-6.04762 0.09884,-0.49418 -0.15937,-1.0338 0,-1.5119 0.112691,-0.33808 0.643263,-0.41788 0.755951,-0.75596 0.159369,-0.4781 -0.159369,-1.03379 0,-1.5119 0.112692,-0.33807 0.596585,-0.43722 0.755954,-0.75595 0.112689,-0.22538 -0.112691,-0.53058 0,-0.75596 0.318736,-0.63747 1.286524,-0.83576 1.511904,-1.5119 0.159369,-0.47811 -0.22538,-1.06114 0,-1.5119 0.112691,-0.22539 0.530571,0.11268 0.755951,0 0.318739,-0.15937 0.503971,-0.50397 0.755955,-0.75596 0.251983,-0.25198 0.596582,-0.43721 0.755951,-0.75595 0.112692,-0.22538 -0.112691,-0.53057 0,-0.75595 0.69586,-1.39172 1.571998,-0.12019 2.267858,-1.51191 0.11503,-0.23006 0,-1.92741 0,-2.26786 0,-1.5119 0,-3.0238 0,-4.53571 0,-3.52778 0,-7.055554 0,-10.583331 0,-0.535821 -0.09773,-4.340262 0,-4.535715 0.159369,-0.318738 0.572606,-0.450376 0.755951,-0.755951 0.57979,-0.966317 1.007938,-2.015874 1.511906,-3.023809 z"
         style="fill:none;stroke:#000000;stroke-width:0.26458332px;stroke-linecap:butt;stroke-linejoin:miter;stroke-opacity:1" />
    </g>
  </g>
</svg>
