<?xml version="1.0" encoding="UTF-8" standalone="no"?>
<!-- Created with Inkscape (http://www.inkscape.org/) -->

<svg
   xmlns:dc="http://purl.org/dc/elements/1.1/"
   xmlns:cc="http://creativecommons.org/ns#"
   xmlns:rdf="http://www.w3.org/1999/02/22-rdf-syntax-ns#"
   xmlns:svg="http://www.w3.org/2000/svg"
   xmlns="http://www.w3.org/2000/svg"
   xmlns:sodipodi="http://sodipodi.sourceforge.net/DTD/sodipodi-0.dtd"
   xmlns:inkscape="http://www.inkscape.org/namespaces/inkscape"
   width="103.236mm"
   height="106.132mm"
   viewBox="0 0 103.236 106.132"
   version="1.1"
   id="svg8"
   inkscape:version="0.92.3 (unknown)"
   sodipodi:docname="login.svg">
  <defs
     id="defs2" />
  <sodipodi:namedview
     id="base"
     pagecolor="#ffffff"
     bordercolor="#666666"
     borderopacity="1.0"
     inkscape:pageopacity="0.0"
     inkscape:pageshadow="2"
     inkscape:zoom="0.49497475"
     inkscape:cx="240.24612"
     inkscape:cy="601.35966"
     inkscape:document-units="mm"
     inkscape:current-layer="layer1"
     showgrid="false"
     showguides="false"
     inkscape:snap-bbox="true"
     inkscape:snap-bbox-midpoints="false"
     inkscape:bbox-nodes="false"
     inkscape:snap-bbox-edge-midpoints="true"
     inkscape:bbox-paths="true"
     inkscape:window-width="1920"
     inkscape:window-height="954"
     inkscape:window-x="0"
     inkscape:window-y="27"
     inkscape:window-maximized="1" />
  <metadata
     id="metadata5">
    <rdf:RDF>
      <cc:Work
         rdf:about="">
        <dc:format>image/svg+xml</dc:format>
        <dc:type
           rdf:resource="http://purl.org/dc/dcmitype/StillImage" />
        <dc:title></dc:title>
      </cc:Work>
    </rdf:RDF>
  </metadata>
  <g
     inkscape:label="Layer 1"
     inkscape:groupmode="layer"
     id="layer1"
     transform="translate(0,-190.868)">
    <g
       aria-label="LOGIN"
       style="font-style:normal;font-weight:normal;font-size:44.38119125px;line-height:1.25;font-family:sans-serif;letter-spacing:0px;word-spacing:0px;fill:#000000;fill-opacity:1;stroke:none;stroke-width:1.10952961"
       id="text848" />
    <g
       aria-label="LOGOUT"
       style="font-style:normal;font-weight:normal;font-size:30.77451515px;line-height:1.25;font-family:sans-serif;letter-spacing:0px;word-spacing:0px;fill:#000000;fill-opacity:1;stroke:none;stroke-width:0.76936275"
       id="text910" />
    <path
       inkscape:connector-curvature="0"
       style="fill:#000000;fill-opacity:1;stroke:none;stroke-width:0.28945589;stroke-miterlimit:4;stroke-dasharray:none;stroke-opacity:1"
       d="M 22.784655,190.86798 C 10.161917,190.86798 0,201.02996 0,213.65263 v 11.82667 h 6.3996091 c 0,0 -0.03617,-8.02241 -0.03617,-12.02148 0,-9.09742 7.3237509,-16.42123 16.4212199,-16.42123 9.097467,0 16.421219,7.32381 16.421219,16.42123 -0.110631,3.18013 -0.06842,17.09897 -0.04703,22.60482 H 25.861471 c -2.887313,0 -5.211569,2.32425 -5.211569,5.21157 v 28.01844 h 4.225581 v 23.31744 h 8.711614 V 297 h 9.029938 c -1.932588,-0.60124 -3.456156,-1.78775 -4.565613,-3.5667 -1.531381,-2.41266 -2.297017,-5.8365 -2.297017,-10.27173 0,-9.49168 3.387561,-14.23737 10.163204,-14.23737 6.775646,0 10.16372,4.74569 10.16372,14.23737 0,6.84788 -1.813261,11.26181 -5.43946,13.24105 -0.448373,0.24143 -0.93019,0.43829 -1.440738,0.59738 h 15.981452 c -0.0141,-0.004 -0.02938,-0.008 -0.04341,-0.0124 -1.155761,-0.36118 -2.138074,-0.86711 -2.947107,-1.51722 -1.516935,-1.21355 -2.578563,-2.85316 -3.185337,-4.91908 -0.592317,-2.08037 -0.888833,-4.14609 -0.888833,-6.19756 0,-2.05148 0.07983,-3.66983 0.238744,-4.85448 0.158917,-1.17021 0.411366,-2.28989 0.758095,-3.35897 0.751244,-2.23928 1.958012,-4.00901 3.619418,-5.30924 1.661403,-1.30023 3.734371,-1.95027 6.219258,-1.95027 2.484877,0 4.449514,0.33954 5.894213,1.01855 v 4.09587 c -1.690298,-0.50564 -3.351681,-0.75861 -4.984191,-0.75861 -2.947189,0 -4.99113,0.96055 -6.132444,2.88199 -0.881266,1.4736 -1.321882,3.59737 -1.321882,6.37119 0,2.77383 0.101081,4.64463 0.303339,5.61258 0.202258,0.96795 0.461965,1.75536 0.779799,2.36213 0.332282,0.60677 0.772898,1.11996 1.321882,1.53892 0.548986,0.40452 1.23531,0.71503 2.058789,0.93173 0.823478,0.20226 1.885622,0.29608 3.185853,0.28164 1.314678,-0.0289 1.971971,-0.45497 1.971971,-1.27848 v -5.59087 h -2.773989 v -4.03076 h 7.108092 c -0.02889,3.8429 -0.04341,7.65657 -0.04341,11.44168 0,0.67901 -0.173654,1.27151 -0.520382,1.77715 -0.504031,0.72805 -1.016492,1.21408 -1.537891,1.46451 h 4.138766 v -27.70735 h 4.355807 V 297 h 2.036569 v -27.70735 h 5.027599 l 9.448515,21.12843 c -0.0867,-1.4736 -0.13022,-2.40511 -0.13022,-2.79518 v -18.33325 h 4.095874 v -28.01844 c 0,-2.88732 -2.32426,-5.21157 -5.211564,-5.21157 H 45.569312 v -22.41001 c 0,-12.62267 -10.161921,-22.78465 -22.784657,-22.78465 z m 23.176362,82.2601 c -2.094815,0 -3.575802,0.77288 -4.442622,2.31872 -0.866819,1.54582 -1.300178,4.07444 -1.300178,7.58506 0,3.49618 0.426101,6.05331 1.278475,7.67137 0.86682,1.60362 2.326034,2.40502 4.37751,2.40502 2.065922,0 3.539651,-0.80866 4.420917,-2.42672 0.881269,-1.63251 1.321885,-4.18964 1.321885,-7.67137 0,-3.48173 -0.418846,-5.99583 -1.256771,-7.54166 -0.823481,-1.56028 -2.289952,-2.34042 -4.399216,-2.34042 z m 42.842347,2.81739 0.08682,2.53525 V 297 h 9.029422 z"
       id="rect824" />
  </g>
</svg>
