<?xml version="1.0" encoding="UTF-8" standalone="no"?>
<!-- Created with Inkscape (http://www.inkscape.org/) -->

<svg
   xmlns:dc="http://purl.org/dc/elements/1.1/"
   xmlns:cc="http://creativecommons.org/ns#"
   xmlns:rdf="http://www.w3.org/1999/02/22-rdf-syntax-ns#"
   xmlns:svg="http://www.w3.org/2000/svg"
   xmlns="http://www.w3.org/2000/svg"
   xmlns:sodipodi="http://sodipodi.sourceforge.net/DTD/sodipodi-0.dtd"
   xmlns:inkscape="http://www.inkscape.org/namespaces/inkscape"
   width="82.586998mm"
   height="95.549004mm"
   viewBox="0 0 82.586998 95.549004"
   version="1.1"
   id="svg8"
   inkscape:version="0.92.3 (unknown)"
   sodipodi:docname="logout.svg">
  <defs
     id="defs2" />
  <sodipodi:namedview
     id="base"
     pagecolor="#ffffff"
     bordercolor="#666666"
     borderopacity="1.0"
     inkscape:pageopacity="0.0"
     inkscape:pageshadow="2"
     inkscape:zoom="0.49497475"
     inkscape:cx="240.24612"
     inkscape:cy="601.35966"
     inkscape:document-units="mm"
     inkscape:current-layer="layer1"
     showgrid="false"
     showguides="false"
     inkscape:snap-bbox="true"
     inkscape:snap-bbox-midpoints="false"
     inkscape:bbox-nodes="false"
     inkscape:snap-bbox-edge-midpoints="true"
     inkscape:bbox-paths="true"
     inkscape:window-width="1920"
     inkscape:window-height="954"
     inkscape:window-x="0"
     inkscape:window-y="27"
     inkscape:window-maximized="1" />
  <metadata
     id="metadata5">
    <rdf:RDF>
      <cc:Work
         rdf:about="">
        <dc:format>image/svg+xml</dc:format>
        <dc:type
           rdf:resource="http://purl.org/dc/dcmitype/StillImage" />
        <dc:title></dc:title>
      </cc:Work>
    </rdf:RDF>
  </metadata>
  <g
     inkscape:label="Layer 1"
     inkscape:groupmode="layer"
     id="layer1"
     transform="translate(0,-201.451)">
    <g
       aria-label="LOGIN"
       style="font-style:normal;font-weight:normal;font-size:44.38119125px;line-height:1.25;font-family:sans-serif;letter-spacing:0px;word-spacing:0px;fill:#000000;fill-opacity:1;stroke:none;stroke-width:1.10952961"
       id="text848" />
    <path
       style="fill:#000000;fill-opacity:1;stroke:none;stroke-width:0.28945589;stroke-miterlimit:4;stroke-dasharray:none;stroke-opacity:1"
       d="m 41.293086,201.45131 c -12.6225,2.8e-4 -22.784141,10.16209 -22.784138,22.78466 v 11.82667 H 5.2120852 C 2.324772,236.06264 0,238.38689 0,241.2742 v 36.60035 h 2.9305699 v 16.16853 H 8.9710285 V 297 h 5.9965325 c -1.215438,-0.43989 -2.183003,-1.23445 -2.901114,-2.3859 -1.061881,-1.67297 -1.59267,-4.04712 -1.59267,-7.12256 0,-6.58166 2.349307,-9.87278 7.047632,-9.87278 4.69832,0 7.047116,3.29112 7.047116,9.87278 0,4.74841 -1.256892,7.8084 -3.771347,9.18083 -0.232497,0.12519 -0.477713,0.23437 -0.734322,0.32763 h 10.567316 c -0.70466,-0.24388 -1.316456,-0.56559 -1.824181,-0.97358 -1.051866,-0.8415 -1.787903,-1.97863 -2.208649,-3.41116 -0.410728,-1.44256 -0.615984,-2.8749 -0.615984,-4.29741 0,-1.42253 0.05517,-2.54475 0.165365,-3.36621 0.110193,-0.81143 0.285123,-1.58774 0.525549,-2.32905 0.52092,-1.55276 1.357368,-2.77984 2.509409,-3.68143 1.152038,-0.9016 2.589861,-1.35238 4.312915,-1.35238 1.723051,0 3.085314,0.23559 4.087087,0.70642 v 2.84014 c -1.172072,-0.35062 -2.324113,-0.52607 -3.456119,-0.52607 -2.043621,0 -3.461055,0.66597 -4.252452,1.99833 -0.611087,1.0218 -0.916742,2.49441 -0.916742,4.41782 0,1.9234 0.07008,3.22108 0.210323,3.89227 0.140247,0.67118 0.320667,1.21688 0.541054,1.63762 0.230412,0.42075 0.536067,0.77661 0.916739,1.06712 0.380674,0.2805 0.856289,0.49569 1.427303,0.64596 0.571008,0.14024 1.307568,0.20535 2.209167,0.19533 0.911614,-0.0201 1.367359,-0.31579 1.367359,-0.88676 v -3.87677 h -1.923396 v -2.79466 h 4.928899 c -0.02007,2.66472 -0.03049,5.30923 -0.03049,7.93388 0,0.47083 -0.119758,0.88135 -0.360185,1.23197 -0.298485,0.43114 -0.601718,0.73903 -0.908987,0.92862 h 7.20576 c -1.215437,-0.43989 -2.183003,-1.23445 -2.901113,-2.3859 -1.061882,-1.67297 -1.592668,-4.04712 -1.592668,-7.12256 0,-6.58166 2.34931,-9.87278 7.04763,-9.87278 4.698328,0 7.047116,3.29112 7.047116,9.87278 0,4.74841 -1.256893,7.8084 -3.771347,9.18083 -0.232492,0.12519 -0.477203,0.23437 -0.733803,0.32763 h 9.428363 c -1.733587,-0.721 -2.805671,-2.18039 -3.210139,-4.38474 -0.180322,-1.02182 -0.275233,-2.15346 -0.285256,-3.39566 v -11.33006 h 3.050461 v 11.30009 c 0,1.89335 0.2301,3.22529 0.690914,3.99665 0.46082,0.77137 1.37282,1.15704 2.735234,1.15704 1.372425,0 2.283918,-0.38567 2.734717,-1.15704 0.4508,-0.77136 0.675923,-2.1033 0.675929,-3.99665 v -11.30009 h 3.08043 v 11.33006 c 0,2.73485 -0.425411,4.7432 -1.276925,6.02547 -0.520464,0.79111 -1.240168,1.37484 -2.155422,1.75493 h 9.593728 v -16.00006 h -4.763532 v -3.12539 H 82.58669 V 241.2742 c 0,-2.88731 -2.324772,-5.21156 -5.212085,-5.21156 H 64.077741 v -11.82667 c 0,-12.62256 -10.161638,-22.78438 -22.784139,-22.78466 z m 5.16e-4,6.16862 c 9.09746,0 16.421219,7.32375 16.421219,16.42122 -0.137819,3.95104 -0.03669,12.02149 -0.03669,12.02149 H 24.908557 c 0,0 -0.03617,-8.02242 -0.03617,-12.02149 0,-9.09747 7.323749,-16.42122 16.421219,-16.42122 z m -23.742221,72.91389 c -1.452573,0 -2.479365,0.53627 -3.08043,1.60817 -0.601062,1.0719 -0.901755,2.8248 -0.901755,5.25911 0,2.4243 0.295722,4.19759 0.886769,5.31958 0.60106,1.11197 1.612953,1.66811 3.035472,1.66811 1.432542,0 2.454368,-0.56111 3.065447,-1.6831 0.611087,-1.13201 0.916223,-2.9053 0.916223,-5.31957 0,-2.41428 -0.290232,-4.15724 -0.871265,-5.22914 -0.571005,-1.08191 -1.587865,-1.62316 -3.050461,-1.62316 z m 29.572357,0 c -1.452575,0 -2.479365,0.53627 -3.080432,1.60817 -0.601067,1.0719 -0.901756,2.8248 -0.901756,5.25911 0,2.4243 0.295722,4.19759 0.88677,5.31958 0.601064,1.11197 1.612953,1.66811 3.035472,1.66811 1.432541,0 2.454367,-0.56111 3.065446,-1.6831 0.611079,-1.13201 0.916223,-2.9053 0.916223,-5.31957 0,-2.41428 -0.290237,-4.15724 -0.871265,-5.22914 -0.571013,-1.08191 -1.587873,-1.62316 -3.050458,-1.62316 z m 30.729388,0.46612 v 15.97732 c 2.661248,-0.24021 4.733563,-2.46298 4.733563,-5.18883 v -10.78849 z"
       id="rect906"
       inkscape:connector-curvature="0" />
    <g
       aria-label="LOGOUT"
       style="font-style:normal;font-weight:normal;font-size:30.77451515px;line-height:1.25;font-family:sans-serif;letter-spacing:0px;word-spacing:0px;fill:#000000;fill-opacity:1;stroke:none;stroke-width:0.76936275"
       id="text910" />
  </g>
</svg>
